<svg width="19" height="18" viewBox="0 0 19 18" fill="none" xmlns="http://www.w3.org/2000/svg">
<path fill-rule="evenodd" clip-rule="evenodd" d="M8.80559 8.5463L9.84462 4.69866C9.84606 4.67017 9.85049 4.64191 9.85783 4.61434L10.9257 0.660268C10.9542 0.555377 11.0234 0.46599 11.1183 0.411789C11.2132 0.357587 11.3259 0.343017 11.4316 0.371285L16.2142 1.64265C16.4343 1.701 16.5651 1.92529 16.5063 2.14366L15.4384 6.09773C15.4102 6.20277 15.341 6.29235 15.2461 6.34672C15.1512 6.40109 15.0383 6.41577 14.9325 6.38753L10.9555 5.32984L10.0708 8.60606C14.3622 9.11936 17.6881 12.7443 17.6881 17.1397C17.6881 17.3657 17.5034 17.549 17.2755 17.549H0.769782C0.541886 17.549 0.35714 17.3657 0.35714 17.1397C0.35714 12.4652 4.12044 8.66091 8.80559 8.5463ZM11.9111 15.093C12.8227 15.093 13.5617 14.36 13.5617 13.4557C13.5617 12.5515 12.8227 11.8184 11.9111 11.8184C10.9996 11.8184 10.2606 12.5515 10.2606 13.4557C10.2606 14.36 10.9996 15.093 11.9111 15.093ZM5.30885 15.5024C5.30885 16.1805 4.75461 16.7303 4.07092 16.7303C3.38724 16.7303 2.833 16.1805 2.833 15.5024C2.833 14.8242 3.38724 14.2744 4.07092 14.2744C4.75461 14.2744 5.30885 14.8242 5.30885 15.5024ZM7.14282 12.0004C7.59861 12.0004 7.96811 11.6338 7.96811 11.1817C7.96811 10.7296 7.59861 10.3631 7.14282 10.3631C6.68703 10.3631 6.31754 10.7296 6.31754 11.1817C6.31754 11.6338 6.68703 12.0004 7.14282 12.0004ZM17.9654 4.65036L16.7696 4.33272V4.3319L16.2356 6.30894C16.1509 6.62388 15.9434 6.89249 15.6589 7.05557C15.3744 7.21865 15.0361 7.26281 14.7188 7.17834L11.9293 6.43583L11.6091 7.62287C11.5503 7.84099 11.6806 8.06517 11.9004 8.12388L16.6838 9.39524C16.9037 9.45359 17.1297 9.32428 17.1888 9.10626L18.2568 5.15219C18.2853 5.04732 18.2706 4.93551 18.2159 4.84139C18.1613 4.74727 18.0712 4.67855 17.9654 4.65036Z" fill="white"/>
</svg>
