<svg width="17" height="17" viewBox="0 0 17 17" fill="none" xmlns="http://www.w3.org/2000/svg">
<path fill-rule="evenodd" clip-rule="evenodd" d="M7.88522 7.64318L8.85498 4.05205C8.85633 4.02546 8.86046 3.99909 8.86731 3.97335L9.86403 0.282884C9.89056 0.184986 9.95522 0.101558 10.0438 0.0509701C10.1323 0.000382442 10.2375 -0.0132167 10.3362 0.0131671L14.7999 1.19977C15.0054 1.25423 15.1274 1.46357 15.0726 1.66738L14.0759 5.35785C14.0495 5.45589 13.9849 5.5395 13.8963 5.59024C13.8077 5.64098 13.7025 5.65469 13.6037 5.62833L9.89176 4.64115L9.06604 7.69896C13.0714 8.17803 16.1756 11.5613 16.1756 15.6636C16.1756 15.8746 16.0032 16.0457 15.7905 16.0457H0.385133C0.17243 16.0457 0 15.8746 0 15.6636C0 11.3008 3.51242 7.75015 7.88522 7.64318ZM10.7837 13.7535C11.6345 13.7535 12.3243 13.0693 12.3243 12.2253C12.3243 11.3813 11.6345 10.6972 10.7837 10.6972C9.93292 10.6972 9.2432 11.3813 9.2432 12.2253C9.2432 13.0693 9.93292 13.7535 10.7837 13.7535ZM4.6216 14.1355C4.6216 14.7685 4.10431 15.2816 3.4662 15.2816C2.82809 15.2816 2.3108 14.7685 2.3108 14.1355C2.3108 13.5025 2.82809 12.9894 3.4662 12.9894C4.10431 12.9894 4.6216 13.5025 4.6216 14.1355ZM6.3333 10.867C6.75871 10.867 7.10357 10.5249 7.10357 10.1029C7.10357 9.68091 6.75871 9.33883 6.3333 9.33883C5.9079 9.33883 5.56304 9.68091 5.56304 10.1029C5.56304 10.5249 5.9079 10.867 6.3333 10.867ZM16.4344 4.00697L15.3183 3.71051V3.70974L14.8199 5.55498C14.7408 5.84893 14.5472 6.09962 14.2816 6.25183C14.0161 6.40404 13.7004 6.44526 13.4042 6.36642L10.8007 5.67341L10.5018 6.78131C10.4469 6.98489 10.5686 7.19412 10.7737 7.24892L15.2382 8.43553C15.4434 8.48998 15.6543 8.3693 15.7096 8.16581L16.7063 4.47534C16.7329 4.37747 16.7192 4.27311 16.6682 4.18527C16.6172 4.09742 16.5331 4.03328 16.4344 4.00697Z" fill="#1B1D21"/>
</svg>
